<svg xmlns="http://www.w3.org/2000/svg" viewBox="0 0 900 600">
  <!-- Saffron band -->
  <rect width="900" height="200" fill="#FF9933"/>
  <!-- White band -->
  <rect y="200" width="900" height="200" fill="#FFFFFF"/>
  <!-- Green band -->
  <rect y="400" width="900" height="200" fill="#138808"/>
  <!-- Ashoka Chakra (navy blue circle) -->
  <circle cx="450" cy="300" r="90" fill="none" stroke="#000080" stroke-width="9"/>
  <circle cx="450" cy="300" r="12" fill="#000080"/>
  <!-- 24 spokes -->
  <g stroke="#000080" stroke-width="3.5">
    <line x1="450" y1="300" x2="450" y2="212"/><line x1="450" y1="300" x2="470" y2="213"/>
    <line x1="450" y1="300" x2="489" y2="220"/><line x1="450" y1="300" x2="504" y2="232"/>
    <line x1="450" y1="300" x2="516" y2="248"/><line x1="450" y1="300" x2="523" y2="267"/>
    <line x1="450" y1="300" x2="526" y2="288"/><line x1="450" y1="300" x2="523" y2="309"/>
    <line x1="450" y1="300" x2="516" y2="328"/><line x1="450" y1="300" x2="504" y2="344"/>
    <line x1="450" y1="300" x2="489" y2="356"/><line x1="450" y1="300" x2="470" y2="363"/>
    <line x1="450" y1="300" x2="450" y2="366"/><line x1="450" y1="300" x2="430" y2="363"/>
    <line x1="450" y1="300" x2="411" y2="356"/><line x1="450" y1="300" x2="396" y2="344"/>
    <line x1="450" y1="300" x2="384" y2="328"/><line x1="450" y1="300" x2="377" y2="309"/>
    <line x1="450" y1="300" x2="374" y2="288"/><line x1="450" y1="300" x2="377" y2="267"/>
    <line x1="450" y1="300" x2="384" y2="248"/><line x1="450" y1="300" x2="396" y2="232"/>
    <line x1="450" y1="300" x2="411" y2="220"/><line x1="450" y1="300" x2="430" y2="213"/>
  </g>
</svg>
